<svg xmlns="http://www.w3.org/2000/svg" version="1.1" xmlns:xlink="http://www.w3.org/1999/xlink" xmlns:svgjs="http://svgjs.dev/svgjs" width="1000" height="925" viewBox="0 0 1000 925"><g transform="matrix(1,0,0,1,0.8029664609711062,0.3744939271254566)"><svg viewBox="0 0 267 247" data-background-color="#000000" preserveAspectRatio="xMidYMid meet" height="925" width="1000" xmlns="http://www.w3.org/2000/svg" xmlns:xlink="http://www.w3.org/1999/xlink"><g id="tight-bounds" transform="matrix(1,0,0,1,-0.21439204507927911,-0.09999999999999432)"><svg viewBox="0 0 267.42878409015856 247.2" height="247.2" width="267.42878409015856"><g><svg viewBox="0 0 395.52 365.60217080835184" height="247.2" width="267.42878409015856"><g transform="matrix(1,0,0,1,0,289.403219231275)"><svg viewBox="0 0 395.52 76.19895157707685" height="76.19895157707685" width="395.52"><g id="textblocktransform"><svg viewBox="0 0 395.52 76.19895157707685" height="76.19895157707685" width="395.52" id="textblock"><g><svg viewBox="0 0 395.52 76.19895157707685" height="76.19895157707685" width="395.52"><g transform="matrix(1,0,0,1,0,0)"><svg width="395.52" viewBox="0.9 -31.05 164.85999999999999 31.76" height="76.19895157707685" data-palette-color="#89939e"><path d="M0.9-30.37L0.98-19.58 5.13-18.95 7.25-26.17 11.16-26.17 11.16-5.1 6.59-3.42 6.27 0 24.76 0 25.15-3.74 19.97-5.08 19.97-26.17 23.97-26.17 25.54-19.95 30-19.19 30.79-30.37 0.9-30.37ZM50.07 0L50.36-3.78 46.63-5.1 46.63-11.45 50.39-11.45 50.95-9.47Q51.95-5.96 53.42-3.75 54.88-1.54 57.04-0.45 59.2 0.63 62.28 0.63L62.28 0.63Q63.47 0.63 64.57 0.45 65.67 0.27 66.31-0.05L66.31-0.05 67.06-3.25 66.11-3.88Q64.16-5.18 62.51-6.65 60.86-8.13 59.37-10.25L59.37-10.25 56.86-13.94 56.86-13.96Q59.37-14.99 60.97-17.05 62.57-19.12 62.57-22.17L62.57-22.17Q62.57-25.27 60.94-27.14 59.3-29 56.11-29.82 52.93-30.64 48.02-30.64L48.02-30.64Q39.43-30.64 33.2-29.37L33.2-29.37 32.91-25.46 37.6-24.32 37.6-5.3 32.96-3.37 32.49 0 50.07 0ZM46.63-26.22Q46.9-26.25 47.43-26.25L47.43-26.25Q49.17-26.25 50.5-25.52 51.83-24.8 52.55-23.6 53.27-22.39 53.27-21L53.27-21Q53.27-19.14 52.85-17.92 52.44-16.7 51.58-15.82L51.58-15.82 46.63-15.82 46.63-26.22ZM68.75 0L83.27 0 83.64-3.61 79.02-5.86 79.93-8.59 89.5-8.59 90.42-5.86 86.37-3.32 85.98 0.05 103.44 0.05 103.73-3.54 100.36-5.81 90.84-31.01 82.37-29.42 72.9-5.88 69.21-3.37 68.75 0ZM81.64-13.7L84.66-22.78 87.76-13.7 81.64-13.7ZM121.33 0.71Q124.11 0.71 126.66-0.02 129.22-0.76 131.1-1.92 132.98-3.08 133.88-4.35L133.88-4.35 132.44-7.64Q130.75-6.4 128.85-5.7 126.95-5 124.48-5L124.48-5Q121.75-5 119.61-6.38 117.47-7.76 116.25-10.36 115.03-12.96 115.03-16.5L115.03-16.5Q115.03-21.29 116.57-23.96 118.11-26.64 121.04-26.64L121.04-26.64Q122.5-26.64 123.89-26.04 125.29-25.44 126.14-24.49L126.14-24.49 127.7-18.82 131.85-18.26 132.61-28.61Q131.34-29.69 128.59-30.37 125.85-31.05 123.45-31.05L123.45-31.05Q117.33-31.05 113.29-28.71 109.25-26.37 107.35-22.56 105.46-18.75 105.46-14.23L105.46-14.23Q105.46-7.1 109.42-3.2 113.37 0.71 121.33 0.71L121.33 0.71ZM135.56-26.86L140.2-25.15 140.2-5.3 136.2-3.86 135.95 0 165.03 0 165.76-10.03 161.73-10.45 158.17-4.39 149.31-4.88 149.31-13.18 152.07-12.7 158.73-11.47 159.54-18.21 153.33-17.7 152.55-17.65 149.31-17.38 149.31-26.17 157.73-26.17 159.76-20.8 163.93-20.17 164.66-30.37 136.03-30.37 135.56-26.86Z" opacity="1" transform="matrix(1,0,0,1,0,0)" fill="#89939e" class="wordmark-text-0" data-fill-palette-color="primary" id="text-0"></path></svg></g></svg></g></svg></g></svg></g><g transform="matrix(1,0,0,1,75.54432,0)"><svg viewBox="0 0 244.43135999999998 244.43135999999998" height="244.43135999999998" width="244.43135999999998"><g><svg viewBox="0 0 244.43135999999998 244.43135999999998" height="244.43135999999998" width="244.43135999999998"><g transform="matrix(1,0,0,1,68.01551428721763,64.60265593644992)"><svg viewBox="0 0 108.40033142556473 115.22604812710014" height="115.22604812710014" width="108.40033142556473"><g><svg xmlns="http://www.w3.org/2000/svg" xmlns:xlink="http://www.w3.org/1999/xlink" version="1.1" x="0" y="0" viewBox="14.396000000000004 12.100000000000001 60.539 64.351" enable-background="new 0 0 90 90" xml:space="preserve" height="115.22604812710014" width="108.40033142556473" class="icon-z$-0" data-fill-palette-color="accent" id="z$-0"><path fill="#dedede" d="M72.817 72.218h-42.58l9.468-24.03c0.117-0.224 0.193-0.47 0.224-0.73 0.003-0.024 0.004-0.048 0.008-0.072 0.004-0.057 0.017-0.113 0.017-0.172V14.217c0-1.169-0.948-2.117-2.117-2.117s-2.117 0.948-2.117 2.117v30.822h-6.428V14.217c0-1.169-0.947-2.117-2.117-2.117-1.169 0-2.116 0.948-2.116 2.117v30.821h-6.43V14.218c0-1.169-0.948-2.117-2.117-2.117s-2.116 0.948-2.116 2.117v32.995c0 0.059 0.013 0.115 0.018 0.172 0.002 0.024 0.004 0.048 0.007 0.072 0.03 0.261 0.106 0.507 0.224 0.73L25.096 74.72c0.182 0.984 1.041 1.731 2.078 1.731h45.644c1.169 0 2.117-0.947 2.117-2.117C74.935 73.165 73.986 72.218 72.817 72.218zM34.705 49.33l-3.642 9.24h-7.779l-3.641-9.24H34.705zM29.396 62.804l-2.223 5.64-2.223-5.64H29.396z" data-fill-palette-color="accent"></path></svg></g></svg></g><g><path d="M2.091 90.917l7.307 2.654 1.472-2.651-4.35-3.242 0.979-2.643 14.242 5.276-0.008 3.503 2.235 1.073 4.627-12.49-2.433-1.2-2.194 3.162-14.262-5.283 1.003-2.708 4.6 0.499 1.624-2.83-7.358-3.322z" fill="#dedede" data-fill-palette-color="accent"></path><path d="M64.409 40.216l-1.389-2.357-2.747 0.759-2.619-3.753 2.221-1.55 1.154 0.938c1.358 1.108 2.631 1.897 3.82 2.367 1.18 0.469 2.344 0.619 3.494 0.45 1.153-0.163 2.337-0.667 3.549-1.513v0c0.47-0.328 0.899-0.68 1.287-1.056 0.378-0.378 0.649-0.717 0.813-1.017v0l-0.873-2.194-0.82 0.012c-1.125 0.029-2.216-0.022-3.274-0.153-1.058-0.131-2.174-0.409-3.347-0.833v0l-3.004-1.146-0.012-0.016c0.707-1.094 1.095-2.267 1.165-3.517 0.06-1.252-0.33-2.482-1.172-3.69v0c-0.85-1.218-1.854-1.972-3.014-2.26-1.159-0.288-2.48-0.155-3.961 0.4-1.482 0.554-3.189 1.506-5.124 2.855v0c-3.388 2.363-6.133 4.651-8.235 6.865v0l1.44 2.431 3.239-1.26 7.849 11.253-1.951 3.054 1.119 2.18zM51.56 26.128c0.096-0.083 0.251-0.199 0.464-0.348v0c0.683-0.476 1.386-0.755 2.109-0.837 0.723-0.082 1.392 0.016 2.007 0.293 0.62 0.283 1.12 0.697 1.501 1.243v0c0.511 0.732 0.852 1.396 1.024 1.991 0.171 0.595 0.208 1.183 0.109 1.764v0l-2.926 2.041z" fill="#dedede" data-fill-palette-color="accent"></path><path d="M111.728 22.135l10.472 0.142 0.295-2.604-3.295-1.664 0.676-1.959 6.894 0.093 0.643 1.978-2.943 1.789-0.313 2.434 12.58 0.171 0.245-2.585-2.406-1.672-6.617-18.258-6.121 1.056-7.065 16.873-2.682 1.782zM121.155 12.389l2.267-6.524 2.149 6.585z" fill="#dedede" data-fill-palette-color="accent"></path><path d="M182.859 42.417c1.093 0.774 2.241 1.371 3.446 1.792 1.204 0.42 2.336 0.667 3.395 0.74 1.063 0.067 1.948-0.024 2.655-0.274v0l0.521-2.534c-1.006 0.014-1.979-0.104-2.92-0.354-0.937-0.256-1.89-0.726-2.858-1.412v0c-1.076-0.762-1.84-1.712-2.292-2.849-0.456-1.131-0.561-2.377-0.316-3.738 0.242-1.355 0.856-2.729 1.842-4.12v0c1.329-1.875 2.666-3.124 4.013-3.746 1.347-0.622 2.593-0.526 3.74 0.286v0c0.576 0.408 1.053 0.922 1.431 1.541 0.383 0.623 0.608 1.239 0.674 1.849v0l-1.441 3.988 2.215 2.059 4.756-5.779c-0.198-0.769-0.741-1.668-1.629-2.697-0.889-1.038-1.801-1.888-2.736-2.551v0c-2.403-1.702-4.723-2.656-6.961-2.862-2.238-0.206-4.256 0.177-6.055 1.148-1.804 0.967-3.333 2.337-4.589 4.109v0c-1.979 2.794-2.735 5.508-2.266 8.143 0.463 2.63 2.255 5.051 5.375 7.261z" fill="#dedede" data-fill-palette-color="accent"></path><path d="M232.456 71.37l0.044 3.569-13.358 5.132-2.006-2.324-2.657 0.829 7.517 19.57 6.944-2.1-0.763-2.822-4.998-0.831-1.963-6.086 5.588-2.147 0.386 1.982 0.903 4.802 4.741-1.2-1.95-4.047-0.229-0.511-1.025-2.111 5.914-2.272 2.175 5.662-3.083 2.758 0.649 2.972 7.056-2.142-7.407-19.282z" fill="#dedede" data-fill-palette-color="accent"></path><path d="M28.327 149.771l-7.387 2.814 0.62 3.01 5.507-0.386 0.997 2.678-14.469 5.386-2.319-2.708-2.431 0.659 4.723 12.69 2.667-0.684-0.407-3.9 14.488-5.393 1.025 2.753-3.883 2.661 0.629 3.263 7.878-2.324z" fill="#dedede" data-fill-palette-color="accent"></path><path d="M55.265 223.507l1.754-2.151-1.693-2.361 2.656-3.813 2.263 1.577-0.492 1.423c-0.579 1.683-0.882 3.173-0.909 4.469-0.032 1.293 0.235 2.461 0.8 3.504 0.559 1.039 1.457 1.988 2.692 2.849v0c0.476 0.331 0.961 0.613 1.457 0.844 0.487 0.234 0.904 0.374 1.253 0.422v0l1.787-1.605-0.297-0.779c-0.429-1.062-0.765-2.119-1.006-3.172-0.25-1.051-0.376-2.21-0.378-3.479v0l0.025-3.27 0.011-0.017c1.297 0.294 2.553 0.251 3.767-0.128 1.218-0.386 2.252-1.188 3.101-2.407v0c0.868-1.246 1.235-2.473 1.1-3.678-0.138-1.2-0.73-2.408-1.775-3.624-1.051-1.219-2.56-2.514-4.528-3.884v0c-3.444-2.398-6.59-4.212-9.437-5.439v0l-1.813 2.22 2.341 2.653-7.966 11.439-3.594-0.785-1.689 1.831zM64.166 206.302c0.117 0.065 0.282 0.172 0.495 0.32v0c0.694 0.483 1.208 1.057 1.543 1.72 0.332 0.654 0.474 1.325 0.425 2.013-0.049 0.688-0.268 1.311-0.657 1.868v0c-0.518 0.743-1.028 1.301-1.53 1.674-0.512 0.374-1.059 0.618-1.642 0.732v0l-2.985-2.079z" fill="#dedede" data-fill-palette-color="accent"></path><path d="M111.782 244.431l10.641-0.147 0.233-2.651-3.41-1.602 0.642-2.008 7.004-0.097 0.707 1.989-2.941 1.91-0.246 2.472 12.78-0.177 0.183-2.641-2.491-1.624-7.229-18.359-6.189 1.245-6.706 17.342-2.672 1.876zM121.086 234.269l2.126-6.685 2.36 6.623z" fill="#dedede" data-fill-palette-color="accent"></path><path d="M192.757 222.046c1.109-0.785 2.069-1.684 2.878-2.697 0.813-1.008 1.429-2.011 1.849-3.009 0.423-0.993 0.636-1.87 0.637-2.63v0l-2.255-1.354c-0.319 0.968-0.761 1.86-1.326 2.676-0.56 0.812-1.332 1.566-2.316 2.263v0c-1.093 0.773-2.258 1.185-3.496 1.237-1.242 0.055-2.473-0.266-3.692-0.963-1.22-0.687-2.331-1.738-3.331-3.151v0c-1.35-1.909-2.095-3.614-2.235-5.115-0.14-1.501 0.373-2.663 1.537-3.486v0c0.587-0.416 1.243-0.7 1.967-0.853 0.724-0.153 1.392-0.161 2.004-0.022v0l3.325 2.728 2.716-1.42-3.923-6.515c-0.81-0.072-1.86 0.145-3.151 0.65-1.285 0.501-2.404 1.089-3.356 1.762v0c-2.447 1.731-4.145 3.634-5.093 5.708-0.948 2.074-1.263 4.137-0.946 6.19 0.318 2.052 1.113 3.978 2.387 5.778v0c2.012 2.844 4.359 4.489 7.04 4.934 2.678 0.44 5.604-0.464 8.78-2.711z" fill="#dedede" data-fill-palette-color="accent"></path><path d="M210.947 171.15l2.389-2.719 13.572 5.241-0.079 3.118 2.573 1.187 7.675-19.874-6.667-3.153-1.341 2.642 3.195 4.041-2.671 5.92-5.677-2.192 1.062-1.754 2.6-4.234-4.393-2.328-1.293 4.374-0.168 0.546-0.67 2.291-6.013-2.322 2.221-5.752 4.209 0.03 1.54-2.684-6.791-3.19-7.556 19.567z" fill="#dedede" data-fill-palette-color="accent"></path><path d="M2.657 125.21c0-4.724 3.83-8.554 8.555-8.554 4.724 0 8.554 3.83 8.554 8.554 0 4.724-3.83 8.554-8.554 8.555-4.724 0-8.554-3.83-8.555-8.555z" fill="#dedede" data-fill-palette-color="accent"></path><path d="M224.873 125.21c0-4.724 3.83-8.554 8.554-8.554 4.724 0 8.554 3.83 8.554 8.554 0 4.724-3.83 8.554-8.554 8.555-4.724 0-8.554-3.83-8.554-8.555z" fill="#dedede" data-fill-palette-color="accent"></path></g></svg></g></svg></g><g></g></svg></g><defs></defs></svg><rect width="267.42878409015856" height="247.2" fill="none" stroke="none" visibility="hidden"></rect></g></svg></g></svg>